<svg width="28" height="28" viewBox="0 0 28 28" fill="none" xmlns="http://www.w3.org/2000/svg">
<path d="M5.61768 11.364H22.3822" stroke="white" stroke-width="1.3" stroke-miterlimit="10" stroke-linecap="round" stroke-linejoin="round"/>
<path d="M13.9999 22.7865C18.8525 22.7865 22.7863 18.8526 22.7863 14C22.7863 9.14734 18.8525 5.2135 13.9999 5.2135C9.14722 5.2135 5.21338 9.14734 5.21338 14C5.21338 18.8526 9.14722 22.7865 13.9999 22.7865Z" stroke="white" stroke-width="1.3" stroke-miterlimit="10" stroke-linecap="round" stroke-linejoin="round"/>
<path d="M5.61768 16.636H22.3822" stroke="white" stroke-width="1.3" stroke-miterlimit="10" stroke-linecap="round" stroke-linejoin="round"/>
<path d="M14 22.7865C15.941 22.7865 17.5146 18.8526 17.5146 14C17.5146 9.14734 15.941 5.2135 14 5.2135C12.0589 5.2135 10.4854 9.14734 10.4854 14C10.4854 18.8526 12.0589 22.7865 14 22.7865Z" stroke="white" stroke-width="1.3" stroke-miterlimit="10" stroke-linecap="round" stroke-linejoin="round"/>
<path d="M14 0.820312C21.2752 0.820312 27.1797 6.72613 27.1797 14C27.1797 21.2743 21.2752 27.1797 14 27.1797C11.6057 27.1797 9.36075 26.5401 7.42334 25.4215C6.53149 24.9088 5.44201 24.8772 4.51943 25.3372C2.96423 26.1078 0.820312 27.1797 0.820312 27.1797C0.820312 27.1797 1.89224 25.0358 2.66984 23.4819C3.13113 22.5597 3.1004 21.4676 2.58639 20.574C1.46169 18.641 0.820312 16.3948 0.820312 14C0.820312 6.72613 6.72481 0.820312 14 0.820312Z" stroke="white" stroke-width="1.3" stroke-miterlimit="10" stroke-linecap="round" stroke-linejoin="round"/>
</svg>
