<svg width="168" height="32" viewBox="0 0 168 32" fill="none" xmlns="http://www.w3.org/2000/svg">
<path fill-rule="evenodd" clip-rule="evenodd" d="M15.4287 11.4286V11.4286V20.5714V32H24.5716V20.5714L36.0001 20.5714V11.4286L15.4287 11.4286Z" fill="#009AF8"/>
<g filter="url(#filter0_d_25_267)">
<path fill-rule="evenodd" clip-rule="evenodd" d="M24.5713 20.5714L24.5713 20.5714L24.5713 20.5714L24.5713 -3.05176e-05L15.4284 -3.13169e-05L15.4284 11.4286L3.99987 11.4286L3.99986 20.5714L24.5713 20.5714Z" fill="#00DF82"/>
</g>
<path d="M69.24 18.7H69.12L73.2 10H76.72V24H74V13.9L74.1 13.86L70.04 22.14H68.24L64.18 13.86L64.28 13.9V24H61.56V10H65.16L69.24 18.7ZM84.4013 24.28C83.6013 24.28 82.8679 24.1533 82.2013 23.9C81.5479 23.6333 80.9813 23.2667 80.5013 22.8C80.0213 22.3333 79.6479 21.7733 79.3813 21.12C79.1279 20.4667 79.0013 19.7533 79.0013 18.98C79.0013 18.1933 79.1346 17.48 79.4013 16.84C79.6679 16.1867 80.0346 15.6333 80.5013 15.18C80.9679 14.7133 81.5279 14.3533 82.1813 14.1C82.8346 13.8467 83.5413 13.72 84.3013 13.72C85.0479 13.72 85.7213 13.84 86.3213 14.08C86.9346 14.32 87.4546 14.66 87.8813 15.1C88.3213 15.54 88.6613 16.0667 88.9013 16.68C89.1413 17.28 89.2613 17.9467 89.2613 18.68C89.2613 18.8267 89.2546 18.9867 89.2413 19.16C89.2279 19.3333 89.2079 19.52 89.1813 19.72H81.1613V17.88H87.0813L86.7013 18.22C86.6879 17.86 86.6146 17.54 86.4813 17.26C86.3613 16.9667 86.1946 16.72 85.9813 16.52C85.7679 16.32 85.5146 16.1667 85.2213 16.06C84.9413 15.94 84.6213 15.88 84.2613 15.88C83.8479 15.88 83.4679 15.9533 83.1213 16.1C82.7746 16.2467 82.4813 16.46 82.2413 16.74C82.0013 17.0067 81.8146 17.3267 81.6813 17.7C81.5479 18.0733 81.4813 18.4867 81.4813 18.94C81.4813 19.3933 81.5479 19.8133 81.6813 20.2C81.8279 20.5867 82.0279 20.9133 82.2813 21.18C82.5346 21.4467 82.8413 21.66 83.2013 21.82C83.5613 21.9667 83.9679 22.04 84.4213 22.04C84.9813 22.04 85.4813 21.9267 85.9213 21.7C86.3613 21.46 86.7146 21.1067 86.9813 20.64L88.8013 22.08C88.2946 22.8 87.6679 23.3467 86.9213 23.72C86.1879 24.0933 85.3479 24.28 84.4013 24.28ZM98.7005 24V9.56H101.26V24H98.7005ZM95.3205 24.28C94.6405 24.28 94.0138 24.1467 93.4405 23.88C92.8805 23.6133 92.3938 23.2467 91.9805 22.78C91.5805 22.3 91.2671 21.74 91.0405 21.1C90.8138 20.46 90.7005 19.76 90.7005 19C90.7005 18.24 90.8138 17.54 91.0405 16.9C91.2671 16.26 91.5805 15.7067 91.9805 15.24C92.3938 14.76 92.8805 14.3867 93.4405 14.12C94.0138 13.8533 94.6405 13.72 95.3205 13.72C96.0005 13.72 96.6071 13.8533 97.1405 14.12C97.6738 14.3867 98.1205 14.76 98.4805 15.24C98.8405 15.7067 99.1138 16.26 99.3005 16.9C99.4871 17.54 99.5805 18.24 99.5805 19C99.5805 19.76 99.4871 20.46 99.3005 21.1C99.1138 21.74 98.8405 22.3 98.4805 22.78C98.1205 23.2467 97.6738 23.6133 97.1405 23.88C96.6071 24.1467 96.0005 24.28 95.3205 24.28ZM96.0205 21.88C96.4071 21.88 96.7605 21.8067 97.0805 21.66C97.4138 21.5133 97.7005 21.3133 97.9405 21.06C98.1805 20.8067 98.3671 20.5 98.5005 20.14C98.6338 19.78 98.7005 19.3933 98.7005 18.98C98.7005 18.5533 98.6338 18.1667 98.5005 17.82C98.3671 17.4733 98.1805 17.1733 97.9405 16.92C97.7005 16.6667 97.4138 16.4733 97.0805 16.34C96.7605 16.1933 96.4071 16.12 96.0205 16.12C95.6338 16.12 95.2738 16.1933 94.9405 16.34C94.6205 16.4733 94.3405 16.6667 94.1005 16.92C93.8605 17.1733 93.6738 17.4733 93.5405 17.82C93.4071 18.1667 93.3405 18.5533 93.3405 18.98C93.3405 19.3933 93.4071 19.78 93.5405 20.14C93.6738 20.5 93.8605 20.8067 94.1005 21.06C94.3405 21.3133 94.6205 21.5133 94.9405 21.66C95.2738 21.8067 95.6338 21.88 96.0205 21.88ZM109.121 24.32C107.628 24.32 106.374 24.0067 105.361 23.38C104.348 22.74 103.554 21.7733 102.981 20.48L105.421 19.28C105.808 20.08 106.308 20.6933 106.921 21.12C107.534 21.5467 108.288 21.76 109.181 21.76C109.954 21.76 110.594 21.6067 111.101 21.3C111.608 20.9933 111.861 20.58 111.861 20.06C111.861 19.5933 111.654 19.2333 111.241 18.98C110.841 18.7267 110.334 18.5133 109.721 18.34C109.121 18.1667 108.468 17.9933 107.761 17.82C107.054 17.6467 106.394 17.4133 105.781 17.12C105.181 16.8133 104.674 16.4067 104.261 15.9C103.861 15.3933 103.661 14.72 103.661 13.88C103.661 13.2533 103.781 12.6867 104.021 12.18C104.274 11.66 104.621 11.2133 105.061 10.84C105.514 10.4667 106.061 10.18 106.701 9.98C107.341 9.78 108.054 9.68 108.841 9.68C110.134 9.68 111.274 9.95333 112.261 10.5C113.248 11.0467 114.028 11.8733 114.601 12.98L112.221 14.22C111.914 13.58 111.474 13.0867 110.901 12.74C110.328 12.38 109.648 12.2 108.861 12.2C108.101 12.2 107.514 12.3533 107.101 12.66C106.701 12.9667 106.501 13.32 106.501 13.72C106.501 14.1333 106.701 14.4533 107.101 14.68C107.514 14.9067 108.028 15.1 108.641 15.26C109.254 15.42 109.914 15.5867 110.621 15.76C111.328 15.9333 111.988 16.18 112.601 16.5C113.214 16.8067 113.721 17.2267 114.121 17.76C114.534 18.2933 114.741 19 114.741 19.88C114.741 20.56 114.608 21.1733 114.341 21.72C114.088 22.2667 113.714 22.7333 113.221 23.12C112.728 23.5067 112.134 23.8 111.441 24C110.761 24.2133 109.988 24.32 109.121 24.32ZM119.169 14V19.66C119.169 20.3667 119.322 20.92 119.629 21.32C119.949 21.72 120.415 21.92 121.029 21.92C121.349 21.92 121.635 21.8667 121.889 21.76C122.155 21.6533 122.382 21.5 122.569 21.3C122.769 21.1 122.922 20.86 123.029 20.58C123.135 20.3 123.189 19.9933 123.189 19.66L123.449 22.14C123.155 22.86 122.749 23.4 122.229 23.76C121.709 24.1067 121.069 24.28 120.309 24.28C119.762 24.28 119.262 24.1867 118.809 24C118.355 23.8133 117.962 23.5467 117.629 23.2C117.309 22.8533 117.055 22.4467 116.869 21.98C116.695 21.5 116.609 20.9667 116.609 20.38V14H119.169ZM125.749 14V24H123.189V14H125.749ZM128.173 28V14H130.733V28H128.173ZM134.113 24.28C133.433 24.28 132.826 24.1467 132.293 23.88C131.759 23.6133 131.313 23.2467 130.953 22.78C130.593 22.3 130.319 21.74 130.133 21.1C129.946 20.46 129.853 19.76 129.853 19C129.853 18.24 129.946 17.54 130.133 16.9C130.319 16.26 130.593 15.7067 130.953 15.24C131.313 14.76 131.759 14.3867 132.293 14.12C132.826 13.8533 133.433 13.72 134.113 13.72C134.793 13.72 135.413 13.8533 135.973 14.12C136.546 14.3867 137.033 14.76 137.433 15.24C137.846 15.7067 138.166 16.26 138.393 16.9C138.619 17.54 138.733 18.24 138.733 19C138.733 19.76 138.619 20.46 138.393 21.1C138.166 21.74 137.846 22.3 137.433 22.78C137.033 23.2467 136.546 23.6133 135.973 23.88C135.413 24.1467 134.793 24.28 134.113 24.28ZM133.413 21.88C133.799 21.88 134.153 21.8067 134.473 21.66C134.806 21.5133 135.093 21.3133 135.333 21.06C135.573 20.8067 135.759 20.5 135.893 20.14C136.026 19.78 136.093 19.3933 136.093 18.98C136.093 18.5533 136.026 18.1667 135.893 17.82C135.759 17.4733 135.573 17.1733 135.333 16.92C135.093 16.6667 134.806 16.4733 134.473 16.34C134.153 16.1933 133.799 16.12 133.413 16.12C133.026 16.12 132.666 16.1933 132.333 16.34C132.013 16.4733 131.733 16.6667 131.493 16.92C131.253 17.1733 131.066 17.4733 130.933 17.82C130.799 18.1667 130.733 18.5533 130.733 18.98C130.733 19.3933 130.799 19.78 130.933 20.14C131.066 20.5 131.253 20.8067 131.493 21.06C131.733 21.3133 132.013 21.5133 132.333 21.66C132.666 21.8067 133.026 21.88 133.413 21.88ZM140.653 28V14H143.213V28H140.653ZM146.593 24.28C145.913 24.28 145.306 24.1467 144.773 23.88C144.24 23.6133 143.793 23.2467 143.433 22.78C143.073 22.3 142.8 21.74 142.613 21.1C142.426 20.46 142.333 19.76 142.333 19C142.333 18.24 142.426 17.54 142.613 16.9C142.8 16.26 143.073 15.7067 143.433 15.24C143.793 14.76 144.24 14.3867 144.773 14.12C145.306 13.8533 145.913 13.72 146.593 13.72C147.273 13.72 147.893 13.8533 148.453 14.12C149.026 14.3867 149.513 14.76 149.913 15.24C150.326 15.7067 150.646 16.26 150.873 16.9C151.1 17.54 151.213 18.24 151.213 19C151.213 19.76 151.1 20.46 150.873 21.1C150.646 21.74 150.326 22.3 149.913 22.78C149.513 23.2467 149.026 23.6133 148.453 23.88C147.893 24.1467 147.273 24.28 146.593 24.28ZM145.893 21.88C146.28 21.88 146.633 21.8067 146.953 21.66C147.286 21.5133 147.573 21.3133 147.813 21.06C148.053 20.8067 148.24 20.5 148.373 20.14C148.506 19.78 148.573 19.3933 148.573 18.98C148.573 18.5533 148.506 18.1667 148.373 17.82C148.24 17.4733 148.053 17.1733 147.813 16.92C147.573 16.6667 147.286 16.4733 146.953 16.34C146.633 16.1933 146.28 16.12 145.893 16.12C145.506 16.12 145.146 16.1933 144.813 16.34C144.493 16.4733 144.213 16.6667 143.973 16.92C143.733 17.1733 143.546 17.4733 143.413 17.82C143.28 18.1667 143.213 18.5533 143.213 18.98C143.213 19.3933 143.28 19.78 143.413 20.14C143.546 20.5 143.733 20.8067 143.973 21.06C144.213 21.3133 144.493 21.5133 144.813 21.66C145.146 21.8067 145.506 21.88 145.893 21.88ZM155.694 24H153.134V9.56H155.694V24ZM159.595 28L161.195 23.9L157.215 14H159.895L162.435 20.88L164.895 14H167.575L162.115 28H159.595Z" fill="white"/>
<defs>
<filter id="filter0_d_25_267" x="0" y="0" width="28.5713" height="28.5714" filterUnits="userSpaceOnUse" color-interpolation-filters="sRGB">
<feFlood flood-opacity="0" result="BackgroundImageFix"/>
<feColorMatrix in="SourceAlpha" type="matrix" values="0 0 0 0 0 0 0 0 0 0 0 0 0 0 0 0 0 0 127 0" result="hardAlpha"/>
<feOffset dy="4"/>
<feGaussianBlur stdDeviation="2"/>
<feComposite in2="hardAlpha" operator="out"/>
<feColorMatrix type="matrix" values="0 0 0 0 0 0 0 0 0 0 0 0 0 0 0 0 0 0 0.25 0"/>
<feBlend mode="normal" in2="BackgroundImageFix" result="effect1_dropShadow_25_267"/>
<feBlend mode="normal" in="SourceGraphic" in2="effect1_dropShadow_25_267" result="shape"/>
</filter>
</defs>
</svg>
