<svg width="32" height="32" viewBox="0 0 32 32" fill="none" xmlns="http://www.w3.org/2000/svg">
<g clip-path="url(#clip0_25_298)">
<path d="M9.3809 27.6077C9.15604 27.6077 8.92716 27.5491 8.72098 27.4238C4.4535 24.849 1.90576 20.3387 1.90576 15.3601V1.27991C1.90576 0.572391 2.47852 0 3.18604 0C3.89356 0 4.46596 0.572391 4.46596 1.27991V15.3601C4.46596 19.4338 6.5508 23.1238 10.0434 25.2313C10.6484 25.5964 10.8436 26.3838 10.4784 26.9888C10.2371 27.3876 9.81486 27.6077 9.3809 27.6077Z" fill="white"/>
<path d="M22.595 27.6051C22.1611 27.6051 21.7385 27.385 21.4975 26.9862C21.1324 26.3812 21.3276 25.5953 21.9326 25.2288C25.4226 23.1216 27.5063 19.4327 27.5063 15.3601V1.27991C27.5063 0.572391 28.0787 0 28.7862 0C29.4938 0 30.0661 0.572391 30.0661 1.27991V15.3601C30.0661 20.3365 27.5199 24.845 23.255 27.4213C23.0488 27.5465 22.8199 27.6051 22.595 27.6051Z" fill="white"/>
<path d="M23.6661 5.12C23.6661 4.41248 23.0937 3.84009 22.3862 3.84009C21.6787 3.84009 21.1059 4.41248 21.1059 5.12V16.6835C20.9645 16.6627 20.8232 16.64 20.676 16.64H11.2958C11.1486 16.64 11.0072 16.663 10.8659 16.6835V5.12C10.8659 4.41248 10.2935 3.84009 9.58594 3.84009C8.87842 3.84009 8.30566 4.41248 8.30566 5.12V19.0899C8.30566 19.154 8.33313 19.2086 8.34229 19.2705C8.32764 19.3898 8.30566 19.507 8.30566 19.6301V25.3086C8.30566 28.9985 11.3071 32 14.9971 32H16.9743C20.6642 32 23.6657 28.9985 23.6657 25.3086V19.6301C23.6657 19.5067 23.6438 19.3898 23.6295 19.2705C23.6386 19.2089 23.6657 19.154 23.6657 19.0899L23.6661 5.12ZM21.1059 25.3089C21.1059 27.4868 19.4056 29.2582 17.2658 29.4109V28.1603C17.2658 27.4528 16.6934 26.88 15.9859 26.88C15.2784 26.88 14.706 27.4528 14.706 28.1603V29.4105C12.5662 29.2578 10.8659 27.4868 10.8659 25.3086V19.6301C10.8659 19.3924 11.0585 19.1998 11.2962 19.1998H20.676C20.9136 19.1998 21.1063 19.3924 21.1063 19.6301L21.1059 25.3089Z" fill="white"/>
</g>
<defs>
<clipPath id="clip0_25_298">
<rect width="32" height="32" fill="white"/>
</clipPath>
</defs>
</svg>
