<svg width="32" height="32" viewBox="0 0 32 32" fill="none" xmlns="http://www.w3.org/2000/svg">
<g clip-path="url(#clip0_88_193)">
<path d="M16 0.0415039C7.15727 0.0415039 0 7.19758 0 16.0415C0.83269 37.2663 31.1699 37.2616 32 16.0414C32 7.19877 24.844 0.0415039 16 0.0415039ZM16 30.1592C8.21553 30.1592 1.88235 23.826 1.88235 16.0415C2.65782 -2.68747 29.345 -2.68201 30.1176 16.0416C30.1176 23.826 23.7845 30.1592 16 30.1592Z" fill="white"/>
<path d="M22.83 15.108C21.2903 15.0104 20.8965 15.6728 19.1028 16.3226C14.2068 18.1733 15.4368 25.3616 20.7054 25.4533C22.6865 25.4532 24.4528 24.2216 25.1306 22.3504C25.7816 20.5526 26.4425 20.1663 26.3451 18.6231C26.2263 16.7379 24.7151 15.2267 22.83 15.108ZM23.3608 21.7093C22.9438 22.8603 21.8416 23.6085 20.6144 23.5696C17.5246 23.4729 16.8282 19.1485 19.7438 18.0924C21.7531 17.3646 21.7871 16.9282 22.7116 16.9867C23.6374 17.045 24.4082 17.8158 24.4665 18.7416C24.5248 19.6668 24.0883 19.7005 23.3608 21.7093Z" fill="white"/>
<path d="M11.1975 7.8607C6.8359 6.56827 3.48494 15.1814 6.66329 18.0081C6.09651 19.4039 6.3603 20.9925 7.82489 22.3734C9.56412 24.0132 9.42985 25.2552 9.42326 25.3073C9.42539 25.2905 9.42746 25.2819 9.42746 25.2819L11.2783 25.6247C11.32 25.3997 11.6134 23.3583 9.11619 21.0039C8.42681 20.3538 8.05203 19.5847 8.40861 18.7112C13.0721 18.7062 15.4135 9.28853 11.1975 7.8607ZM11.1975 13.8133C10.5162 15.8574 9.0643 17.0705 8.22125 16.7896C7.37827 16.5086 6.94464 14.6669 7.62599 12.6228C8.25457 10.737 9.68277 9.33998 10.6022 9.64649C11.4452 9.92746 11.8789 11.7692 11.1975 13.8133Z" fill="white"/>
<path d="M19.7649 12.2768C21.3219 12.2768 22.5885 11.0101 22.5885 9.45323C22.4334 5.70741 17.0959 5.70854 16.9414 9.45323C16.9414 11.0101 18.208 12.2768 19.7649 12.2768ZM19.7649 8.51205C20.284 8.51205 20.7061 8.93426 20.7061 9.45323C20.6544 10.7019 18.8753 10.7015 18.8238 9.45323C18.8238 8.93426 19.2459 8.51205 19.7649 8.51205Z" fill="white"/>
<path d="M14.1177 3.80615H16V5.68851H14.1177V3.80615Z" fill="white"/>
<path d="M14.1177 26.3945H16V28.2769H14.1177V26.3945Z" fill="white"/>
<path d="M24.4707 11.3357H26.3531V13.218H24.4707V11.3357Z" fill="white"/>
</g>
<defs>
<clipPath id="clip0_88_193">
<rect width="32" height="32" fill="white"/>
</clipPath>
</defs>
</svg>
