<svg width="32" height="32" viewBox="0 0 32 32" fill="none" xmlns="http://www.w3.org/2000/svg">
<mask id="mask0_88_230" style="mask-type:luminance" maskUnits="userSpaceOnUse" x="0" y="0" width="32" height="32">
<path d="M32 1.90735e-06H1.90735e-06V32H32V1.90735e-06Z" fill="white"/>
</mask>
<g mask="url(#mask0_88_230)">
<path d="M25.7434 0.999901H17.2701C12.9274 0.999901 9.407 4.52034 9.407 8.86296V8.86765C9.407 11.1675 10.3409 13.3438 11.9544 14.9213C12.6806 15.6312 12.9886 16.6653 12.7422 17.6507L11.9203 20.9384L19.7178 23.676L20.0691 19.8281L23.8588 20.4785C24.5363 20.5948 25.1813 20.1444 25.3055 19.4683L25.4934 18.4452L23.2393 16.8565L23.2442 16.7428L25.7434 15.7058V14.6548L27 13.3981L24.4868 9.21146V5.85865C25.2914 5.05409 25.7434 3.96278 25.7434 2.8249V0.999901Z" stroke="white" stroke-width="1.7" stroke-miterlimit="10"/>
<path d="M24.4868 5.85868H20.2472C19.1185 5.85868 18.2036 6.77362 18.2036 7.90224V9.58537L17.0076 9.30918C15.0271 8.85218 13.5614 11.1877 14.8874 12.7714L12.6155 15.9119" stroke="white" stroke-width="1.7" stroke-miterlimit="10"/>
<path d="M5.13258 31.1248C5.13045 26.74 7.75258 22.6073 11.9203 20.9383L19.7178 23.6759L22.0801 31.1248H5.13258Z" stroke="white" stroke-width="1.7" stroke-miterlimit="10"/>
</g>
</svg>
