<svg width="32" height="32" viewBox="0 0 32 32" fill="none" xmlns="http://www.w3.org/2000/svg">
<mask id="mask0_88_202" style="mask-type:luminance" maskUnits="userSpaceOnUse" x="0" y="0" width="32" height="32">
<path d="M0 1.90735e-06H32V32H0V1.90735e-06Z" fill="white"/>
</mask>
<g mask="url(#mask0_88_202)">
<path d="M21.8306 4.34213C19.5174 4.34213 17.4439 5.36245 16.0309 6.97595C14.6181 5.36245 12.5444 4.34213 10.2313 4.34213C5.97407 4.34213 2.52295 7.79326 2.52295 12.0504C2.52295 16.2991 6.13382 21.2924 16.0309 27.4893C25.9281 21.2924 29.5389 16.2991 29.5389 12.0504C29.5389 7.79326 26.0878 4.34213 21.8306 4.34213Z" stroke="white" stroke-width="1.7" stroke-miterlimit="10"/>
<path d="M0 16H9.85156L11.2775 17.8828L14.3981 12.2344L17.6637 19.7656L20.6916 14.1172L22.1484 16H32" stroke="white" stroke-width="1.7" stroke-miterlimit="10"/>
</g>
</svg>
